<svg xmlns="http://www.w3.org/2000/svg" style="display:none;">
    <symbol id="icon-add" viewBox="0 -960 960 960">
        <path d="M440-280h80v-160h160v-80H520v-160h-80v160H280v80h160v160Zm40 200q-83 0-156-31.5T197-197q-54-54-85.5-127T80-480q0-83 31.5-156T197-763q54-54 127-85.5T480-880q83 0 156 31.5T763-763q54 54 85.5 127T880-480q0 83-31.5 156T763-197q-54 54-127 85.5T480-80Zm0-80q134 0 227-93t93-227q0-134-93-227t-227-93q-134 0-227 93t-93 227q0 134 93 227t227 93Zm0-320Z" />
    </symbol>
    <symbol id="icon-home" viewBox="0 -960 960 960">
        <path d="M240-200h120v-240h240v240h120v-360L480-740 240-560v360Zm-80 80v-480l320-240 320 240v480H520v-240h-80v240H160Zm320-350Z" />
    </symbol>
    <symbol id="icon-code-scan" viewBox="0 -960 960 960">
        <path
                d="M40-120v-200h80v120h120v80H40Zm680 0v-80h120v-120h80v200H720ZM160-240v-480h80v480h-80Zm120 0v-480h40v480h-40Zm120 0v-480h80v480h-80Zm120 0v-480h120v480H520Zm160 0v-480h40v480h-40Zm80 0v-480h40v480h-40ZM40-640v-200h200v80H120v120H40Zm800 0v-120H720v-80h200v200h-80Z" />
    </symbol>
    <symbol id="flecha" viewBox="0 -960 960 960">
        <path d="m313-440 224 224-57 56-320-320 320-320 57 56-224 224h487v80H313Z" />
    </symbol>
    <symbol id="person" viewBox="0 -960 960 960">
        <path d="M480-480q-66 0-113-47t-47-113q0-66 47-113t113-47q66 0 113 47t47 113q0 66-47 113t-113 47ZM160-160v-112q0-34 17.5-62.5T224-378q62-31 126-46.5T480-440q66 0 130 15.5T736-378q29 15 46.5 43.5T800-272v112H160Z"/>            
    </symbol>
    <symbol id="search" viewBox="0 -960 960 960">
        <path
                d="M784-120 532-372q-30 24-69 38t-83 14q-109 0-184.5-75.5T120-580q0-109 75.5-184.5T380-840q109 0 184.5 75.5T640-580q0 44-14 83t-38 69l252 252-56 56ZM380-400q75 0 127.5-52.5T560-580q0-75-52.5-127.5T380-760q-75 0-127.5 52.5T200-580q0 75 52.5 127.5T380-400Z" />
    </symbol>
    <symbol id="close" viewBox="0 -960 960 960">
        <path
                d="m256-200-56-56 224-224-224-224 56-56 224 224 224-224 56 56-224 224 224 224-56 56-224-224-224 224Z" />
    </symbol>
            <symbol id="icon-grid" viewBox="0 -960 960 960">
            <path
                d="M120-520v-320h320v320H120Zm0 400v-320h320v320H120Zm400-400v-320h320v320H520Zm0 400v-320h320v320H520ZM200-600h160v-160H200v160Zm400 0h160v-160H600v160Zm0 400h160v-160H600v160Zm-400 0h160v-160H200v160Zm400-400Zm0 240Zm-240 0Zm0-240Z" />
    </symbol>
    <symbol id="icon-list" viewBox="0 -960 960 960">
            <path
                d="M360-240h440v-107H360v107ZM160-613h120v-107H160v107Zm0 187h120v-107H160v107Zm0 186h120v-107H160v107Zm200-186h440v-107H360v107Zm0-187h440v-107H360v107ZM160-160q-33 0-56.5-23.5T80-240v-480q0-33 23.5-56.5T160-800h640q33 0 56.5 23.5T880-720v480q0 33-23.5 56.5T800-160H160Z" />
    </symbol>
    <symbol id="icon-load" viewBox="0 -960 960 960">
            <path
                d="M480-160q-134 0-227-93t-93-227q0-134 93-227t227-93q69 0 132 28.5T720-690v-110h80v280H520v-80h168q-32-56-87.5-88T480-720q-100 0-170 70t-70 170q0 100 70 170t170 70q77 0 139-44t87-116h84q-28 106-114 173t-196 67Z" />
    </symbol>
    <symbol id="search" viewBox="0 -960 960 960">
            <path 
                d="M784-120 532-372q-30 24-69 38t-83 14q-109 0-184.5-75.5T120-580q0-109 75.5-184.5T380-840q109 0 184.5 75.5T640-580q0 44-14 83t-38 69l252 252-56 56ZM380-400q75 0 127.5-52.5T560-580q0-75-52.5-127.5T380-760q-75 0-127.5 52.5T200-580q0 75 52.5 127.5T380-400Z"/>
    </symbol>
    <symbol id="logout" viewBox="0 -960 960 960">
            <path
                d="M200-120q-33 0-56.5-23.5T120-200v-560q0-33 23.5-56.5T200-840h280v80H200v560h280v80H200Zm440-160-55-58 102-102H360v-80h327L585-622l55-58 200 200-200 200Z" />
    </symbol>
    <symbol id="save" viewBox="0 -960 960 960">
            <path
                d="M840-680v480q0 33-23.5 56.5T760-120H200q-33 0-56.5-23.5T120-200v-560q0-33 23.5-56.5T200-840h480l160 160ZM480-240q50 0 85-35t35-85q0-50-35-85t-85-35q-50 0-85 35t-35 85q0 50 35 85t85 35ZM240-560h360v-160H240v160Z" />

    </symbol>
    <symbol id="delete" viewBox="0 -960 960 960">
            <path
                d="M280-120q-33 0-56.5-23.5T200-200v-520h-40v-80h200v-40h240v40h200v80h-40v520q0 33-23.5 56.5T680-120H280Zm80-160h80v-360h-80v360Zm160 0h80v-360h-80v360Z" />
    </symbol>
    <symbol id="search" viewBox="0 -960 960 960">
            <path
                d="M784-120 532-372q-30 24-69 38t-83 14q-109 0-184.5-75.5T120-580q0-109 75.5-184.5T380-840q109 0 184.5 75.5T640-580q0 44-14 83t-38 69l252 252-56 56ZM380-400q75 0 127.5-52.5T560-580q0-75-52.5-127.5T380-760q-75 0-127.5 52.5T200-580q0 75 52.5 127.5T380-400Z" />
    </symbol>
    <symbol id="edit" viewBox="0 -960 960 960">
            <path 
                d="M120-120v-170l528-527q12-11 26.5-17t30.5-6q16 0 31 6t26 18l55 56q12 11 17.5 26t5.5 30q0 16-5.5 30.5T817-647L290-120H120Zm584-528 56-56-56-56-56 56 56 56Z"/>           
    </symbol>
    <symbol id="pay" viewBox="0 -960 960 960">
            <path d="M120-160q-33 0-56.5-23.5T40-240v-440h80v440h680v80H120Zm160-160q-33 0-56.5-23.5T200-400v-320q0-33 23.5-56.5T280-800h560q33 0 56.5 23.5T920-720v320q0 33-23.5 56.5T840-320H280Zm80-80q0-33-23.5-56.5T280-480v80h80Zm400 0h80v-80q-33 0-56.5 23.5T760-400Zm-200-40q50 0 85-35t35-85q0-50-35-85t-85-35q-50 0-85 35t-35 85q0 50 35 85t85 35ZM280-640q33 0 56.5-23.5T360-720h-80v80Zm560 0v-80h-80q0 33 23.5 56.5T840-640Z"/>          
    </symbol>
    <symbol id="change" viewBox="0 -960 960 960">
            <path d="M204-318q-22-38-33-78t-11-82q0-134 93-228t227-94h7l-64-64 56-56 160 160-160 160-56-56 64-64h-7q-100 0-170 70.5T240-478q0 26 6 51t18 49l-60 60ZM481-40 321-200l160-160 56 56-64 64h7q100 0 170-70.5T720-482q0-26-6-51t-18-49l60-60q22 38 33 78t11 82q0 134-93 228t-227 94h-7l64 64-56 56Z"/>            
    </symbol> 
    <symbol id="printer" viewBox="0 -960 960 960">
            <path d="M720-680H240v-160h480v160Zm0 220q17 0 28.5-11.5T760-500q0-17-11.5-28.5T720-540q-17 0-28.5 11.5T680-500q0 17 11.5 28.5T720-460Zm-80 260v-160H320v160h320Zm80 80H240v-160H80v-240q0-51 35-85.5t85-34.5h560q51 0 85.5 34.5T880-520v240H720v160Z"/>            
    </symbol> 
    <symbol id="card" viewBox="0 -960 960 960">
            <path d="M160-160q-33 0-56.5-23.5T80-240v-480q0-33 23.5-56.5T160-800h640q33 0 56.5 23.5T880-720v480q0 33-23.5 56.5T800-160H160Zm0-320h640v-160H160v160Z"/>           
    </symbol>
    <symbol id="card-product" viewBox="0 -960 960 960">
            <path d="M440-600v-120H320v-80h120v-120h80v120h120v80H520v120h-80ZM280-80q-33 0-56.5-23.5T200-160q0-33 23.5-56.5T280-240q33 0 56.5 23.5T360-160q0 33-23.5 56.5T280-80Zm400 0q-33 0-56.5-23.5T600-160q0-33 23.5-56.5T680-240q33 0 56.5 23.5T760-160q0 33-23.5 56.5T680-80ZM40-800v-80h131l170 360h280l156-280h91L692-482q-11 20-29.5 31T622-440H324l-44 80h480v80H280q-45 0-68.5-39t-1.5-79l54-98-144-304H40Z"/>
    </symbol>
    <symbol id="clean" viewBox="0 -960 960 960">
            <path d="M440-520h80v-280q0-17-11.5-28.5T480-840q-17 0-28.5 11.5T440-800v280ZM200-360h560v-80H200v80Zm-58 240h98v-80q0-17 11.5-28.5T280-240q17 0 28.5 11.5T320-200v80h120v-80q0-17 11.5-28.5T480-240q17 0 28.5 11.5T520-200v80h120v-80q0-17 11.5-28.5T680-240q17 0 28.5 11.5T720-200v80h98l-40-160H182l-40 160Zm676 80H142q-39 0-63-31t-14-69l55-220v-80q0-33 23.5-56.5T200-520h160v-280q0-50 35-85t85-35q50 0 85 35t35 85v280h160q33 0 56.5 23.5T840-440v80l55 220q13 38-11.5 69T818-40Zm-58-400H200h560Zm-240-80h-80 80Z"/>
    </symbol>
    <symbol id="add" viewBox="0 -960 960 960">
        <path d="M427-427H180.78v-106H427v-246.22h106V-533h246.22v106H533v246.22H427V-427Z"/>          
    </symbol>
    <symbol id="arrow" viewBox="0 -960 960 960">
        <path d="M480-360 280-560h400L480-360Z"/>       
    </symbol>
    <symbol id="close" viewBox="0 -960 960 960">
        <path d="m256-200-56-56 224-224-224-224 56-56 224 224 224-224 56 56-224 224 224 224-56 56-224-224-224 224Z"/>       
    </symbol>
</svg>